<?xml version="1.0" encoding="UTF-8" standalone="no" ?>
<!DOCTYPE svg PUBLIC "-//W3C//DTD SVG 1.1//EN" "http://www.w3.org/Graphics/SVG/1.1/DTD/svg11.dtd">
<svg xmlns="http://www.w3.org/2000/svg" xmlns:xlink="http://www.w3.org/1999/xlink" version="1.1" width="1080" height="1080" viewBox="0 0 1080 1080" xml:space="preserve">
<desc>Created with Fabric.js 5.2.4</desc>
<defs>
</defs>
<g transform="matrix(1 0 0 1 540 540)" id="2dc1b1cb-474c-4d50-b864-67cc24b81c7c"  >
<rect style="stroke: none; stroke-width: 1; stroke-dasharray: none; stroke-linecap: butt; stroke-dashoffset: 0; stroke-linejoin: miter; stroke-miterlimit: 4; fill: rgb(255,255,255); fill-rule: nonzero; opacity: 1; visibility: hidden;" vector-effect="non-scaling-stroke"  x="-540" y="-540" rx="0" ry="0" width="1080" height="1080" />
</g>
<g transform="matrix(1 0 0 1 540 540)" id="2d62f944-0971-4f19-a5a0-0842f27b83e6"  >
</g>
<g transform="matrix(1 0 0 1 540 540)"  >
<g style="" vector-effect="non-scaling-stroke"   >
		<g transform="matrix(0.13 0 0 -0.13 0.11 0)"  >
<path style="stroke: none; stroke-width: 1; stroke-dasharray: none; stroke-linecap: butt; stroke-dashoffset: 0; stroke-linejoin: miter; stroke-miterlimit: 4; fill: rgb(255,255,255); fill-rule: nonzero; opacity: 1;" vector-effect="non-scaling-stroke"  transform=" translate(-2284.95, -2347.61)" d="M 1885 4655 C 1847 4642 1806 4626 1795 4621 C 1784 4616 1759 4609 1740 4606 C 1659 4592 1470 4451 1383 4340 C 1299 4233 1288 4215 1235 4115 C 1172 3995 1146 3891 1154 3791 C 1157 3749 1164 3630 1169 3525 C 1175 3421 1187 3295 1196 3245 C 1205 3196 1213 3142 1215 3125 C 1216 3109 1218 3091 1220 3085 C 1221 3080 1222 3072 1221 3068 C 1221 3063 1224 3060 1229 3060 C 1244 3060 1270 3030 1270 3014 C 1270 3006 1258 3013 1241 3032 C 1225 3050 1209 3062 1205 3059 C 1195 3048 1159 2858 1164 2843 C 1173 2821 1206 2844 1232 2890 C 1256 2932 1270 2941 1270 2913 C 1270 2904 1278 2888 1287 2878 C 1302 2861 1302 2859 1286 2847 C 1268 2834 1251 2807 1224 2750 C 1202 2704 1211 2642 1243 2615 C 1275 2588 1293 2535 1278 2510 C 1264 2488 1283 2389 1309 2350 C 1318 2336 1334 2298 1344 2265 C 1354 2232 1372 2187 1385 2165 C 1397 2143 1410 2113 1414 2097 C 1424 2056 1402 1895 1373 1805 C 1353 1742 1349 1713 1354 1666 C 1365 1554 1423 1481 1659 1281 C 1721 1228 1803 1155 1841 1118 C 1910 1049 1930 1038 1930 1065 C 1930 1088 1960 1083 1969 1058 C 1974 1045 1981 1036 1986 1038 C 1991 1039 1995 1034 1995 1028 C 1995 1021 2011 1007 2030 998 C 2049 988 2060 980 2054 980 C 2028 980 2031 949 2058 938 C 2073 931 2096 918 2110 909 C 2125 899 2154 892 2182 893 C 2244 893 2252 885 2198 876 C 2175 872 2151 865 2144 859 C 2137 853 2123 855 2104 865 C 2088 873 2063 880 2048 880 C 2007 880 1980 894 1928 939 C 1903 962 1876 980 1868 980 C 1860 980 1836 997 1815 1018 C 1793 1038 1744 1077 1706 1103 L 1638 1151 L 1584 1118 C 1554 1101 1518 1076 1503 1064 L 1476 1043 L 1552 1007 C 1594 988 1645 967 1665 960 C 1685 953 1699 946 1697 943 C 1694 941 1658 950 1616 964 C 1498 1004 1483 994 1595 951 C 1729 900 1803 886 1733 924 C 1710 936 1709 939 1724 940 C 1743 940 1866 872 1902 842 C 1913 833 1929 830 1947 835 C 1967 839 1972 838 1965 831 C 1957 824 1972 801 2012 759 C 2044 725 2073 700 2077 703 C 2080 707 2080 710 2075 710 C 2071 710 2073 717 2080 725 C 2087 733 2097 740 2102 740 C 2108 740 2107 733 2100 725 C 2084 706 2095 664 2126 623 C 2139 606 2155 572 2162 547 C 2172 508 2171 493 2151 424 C 2138 380 2113 309 2095 265 C 2063 187 2025 32 2035 22 C 2038 19 2040 22 2040 28 C 2040 35 2044 40 2050 40 C 2055 40 2059 35 2057 29 C 2056 22 2090 19 2165 20 C 2225 20 2276 22 2277 23 C 2278 25 2281 56 2284 93 C 2287 130 2292 179 2295 203 C 2301 238 2299 248 2286 253 C 2265 261 2266 287 2287 298 C 2302 307 2304 324 2302 420 C 2300 522 2302 538 2327 594 C 2341 627 2368 671 2385 690 C 2402 709 2429 742 2444 763 C 2459 783 2476 798 2481 794 C 2494 787 2530 818 2530 837 C 2530 844 2535 850 2541 850 C 2562 850 2660 921 2743 995 C 2815 1060 2825 1066 2836 1052 C 2843 1043 2846 1032 2844 1028 C 2841 1023 2846 1020 2855 1020 C 2866 1020 2870 1015 2866 1004 C 2863 995 2864 992 2871 996 C 2877 999 2892 992 2906 979 C 2919 967 2930 961 2930 966 C 2930 971 2899 1005 2862 1042 C 2782 1121 2710 1159 2675 1140 C 2651 1127 2620 1071 2620 1040 C 2620 1027 2605 1015 2573 1000 C 2547 989 2500 955 2469 925 C 2419 877 2406 870 2372 870 C 2329 870 2310 849 2331 824 C 2339 814 2339 810 2332 810 C 2326 810 2316 818 2311 829 C 2297 854 2318 897 2350 909 C 2388 922 2470 993 2470 1011 C 2470 1020 2477 1030 2485 1034 C 2493 1037 2500 1045 2500 1053 C 2500 1060 2514 1079 2531 1096 C 2601 1162 2753 1404 2811 1543 L 2843 1620 L 2825 1685 C 2816 1721 2804 1753 2799 1756 C 2794 1759 2790 1733 2790 1700 C 2790 1626 2760 1557 2701 1498 C 2680 1477 2647 1440 2629 1415 C 2610 1391 2590 1370 2584 1370 C 2577 1370 2569 1355 2566 1336 C 2558 1294 2532 1240 2519 1240 C 2514 1240 2510 1233 2510 1225 C 2510 1216 2497 1204 2482 1197 C 2466 1190 2455 1180 2457 1173 C 2459 1167 2452 1156 2441 1150 C 2429 1144 2420 1131 2420 1122 C 2420 1096 2362 1030 2339 1030 C 2329 1030 2320 1036 2320 1044 C 2320 1061 2296 1071 2275 1064 C 2263 1059 2262 1055 2272 1043 C 2278 1035 2262 1041 2235 1056 C 2188 1082 2185 1082 2157 1066 C 2109 1039 2088 1045 2053 1098 C 2023 1143 2023 1145 2042 1153 C 2055 1157 2060 1166 2056 1175 C 2049 1193 2070 1230 2086 1230 C 2093 1230 2105 1245 2114 1264 C 2123 1283 2138 1301 2147 1304 C 2161 1310 2162 1313 2151 1319 C 2129 1333 2146 1347 2192 1354 C 2215 1358 2240 1366 2247 1372 C 2254 1378 2275 1386 2293 1390 C 2324 1398 2324 1398 2281 1399 C 2243 1400 2239 1402 2251 1416 C 2261 1429 2261 1433 2251 1440 C 2244 1444 2229 1445 2219 1443 C 2196 1437 2183 1464 2199 1484 C 2210 1497 2265 1513 2302 1514 C 2311 1515 2321 1518 2325 1522 C 2329 1526 2342 1524 2355 1518 C 2374 1510 2385 1512 2414 1532 C 2434 1546 2447 1559 2444 1563 C 2435 1572 2466 1611 2475 1602 C 2479 1598 2481 1602 2478 1610 C 2473 1622 2480 1626 2504 1626 C 2528 1625 2534 1629 2532 1643 C 2530 1653 2535 1660 2545 1660 C 2563 1660 2564 1673 2549 1702 C 2541 1717 2541 1721 2550 1715 C 2556 1711 2579 1725 2603 1750 C 2673 1819 2685 1830 2695 1831 C 2709 1831 2791 1936 2816 1984 C 2827 2007 2841 2034 2847 2045 C 2891 2125 2940 2252 2940 2288 C 2940 2300 2947 2327 2955 2346 C 2964 2367 2970 2417 2971 2466 C 2972 2512 2976 2552 2980 2555 C 2996 2565 3010 2497 3001 2457 C 2992 2420 2992 2419 3018 2422 C 3043 2425 3045 2428 3048 2484 C 3051 2543 3037 2588 3002 2632 C 2990 2646 2990 2661 3001 2720 C 3013 2786 3016 2793 3054 2818 C 3077 2834 3103 2849 3113 2853 C 3123 2857 3130 2870 3130 2885 C 3130 2899 3139 2930 3149 2954 C 3169 2996 3196 3066 3207 3105 C 3211 3116 3225 3148 3239 3175 C 3258 3212 3273 3227 3296 3234 C 3327 3243 3343 3269 3353 3325 C 3359 3360 3353 3373 3328 3383 C 3306 3391 3304 3436 3325 3444 C 3333 3447 3340 3456 3340 3463 C 3340 3471 3347 3483 3355 3490 C 3372 3504 3402 3560 3392 3560 C 3389 3560 3373 3548 3358 3533 C 3336 3512 3330 3510 3330 3523 C 3330 3532 3336 3540 3343 3540 C 3362 3541 3407 3585 3415 3611 C 3421 3632 3417 3630 3383 3598 C 3362 3577 3341 3560 3337 3560 C 3322 3560 3337 3597 3363 3623 C 3393 3652 3399 3708 3371 3702 C 3361 3700 3359 3705 3364 3722 C 3382 3782 3382 3874 3365 3951 C 3355 3994 3342 4030 3335 4030 C 3321 4030 3240 4169 3240 4193 C 3240 4241 3102 4392 3060 4389 C 3046 4388 3014 4397 2988 4409 C 2963 4420 2927 4433 2909 4437 C 2891 4440 2842 4467 2799 4495 L 2722 4547 L 2573 4553 C 2377 4562 2336 4571 2242 4625 C 2165 4670 2153 4673 2070 4669 C 2056 4669 2025 4671 2000 4674 C 1967 4678 1937 4674 1885 4655 z M 3317 3868 C 3314 3860 3311 3863 3311 3874 C 3310 3885 3313 3891 3316 3887 C 3319 3884 3320 3875 3317 3868 z M 2380 3867 C 2519 3849 2714 3784 2735 3749 C 2739 3744 2753 3740 2767 3740 C 2796 3740 2883 3693 2876 3681 C 2873 3677 2881 3658 2893 3639 C 2912 3609 2914 3593 2912 3508 C 2910 3410 2916 3370 2944 3294 C 2952 3271 2968 3218 2979 3176 C 2998 3103 2998 3093 2984 2858 C 2968 2582 2960 2508 2932 2359 C 2906 2220 2889 2189 2777 2068 C 2756 2045 2735 2018 2729 2009 C 2724 1999 2714 1993 2707 1996 C 2699 1999 2673 1978 2648 1948 C 2609 1903 2596 1895 2564 1892 C 2542 1891 2524 1885 2522 1880 C 2520 1874 2514 1870 2509 1870 C 2496 1870 2498 1908 2510 1912 C 2522 1916 2494 1980 2480 1980 C 2476 1980 2470 1971 2467 1961 C 2465 1950 2452 1940 2439 1938 C 2425 1936 2416 1929 2418 1921 C 2424 1891 2409 1871 2380 1872 C 2363 1873 2350 1877 2350 1882 C 2350 1886 2341 1890 2330 1890 C 2317 1890 2310 1883 2310 1870 C 2310 1859 2306 1850 2300 1850 C 2295 1850 2290 1855 2290 1860 C 2290 1877 2270 1871 2243 1846 C 2229 1833 2211 1824 2204 1827 C 2195 1830 2190 1825 2190 1812 C 2190 1800 2186 1789 2181 1786 C 2176 1783 2173 1788 2174 1798 C 2174 1808 2168 1815 2155 1816 C 2112 1818 2109 1820 2115 1839 C 2119 1853 2116 1858 2103 1856 C 2090 1855 2086 1861 2087 1878 C 2090 1900 2076 1908 2065 1890 C 2055 1874 2022 1878 2012 1896 C 2002 1915 1980 1907 1980 1884 C 1980 1868 1978 1868 1956 1876 C 1939 1883 1934 1920 1950 1920 C 1956 1920 1960 1925 1960 1930 C 1960 1952 1932 1938 1920 1910 C 1907 1878 1895 1872 1887 1893 C 1883 1902 1879 1901 1871 1890 C 1861 1877 1856 1879 1835 1903 C 1821 1919 1805 1928 1800 1925 C 1794 1922 1787 1926 1784 1935 C 1780 1944 1771 1948 1760 1945 C 1747 1941 1741 1946 1736 1965 C 1732 1979 1732 1995 1735 2000 C 1739 2006 1730 2010 1717 2010 C 1683 2010 1667 2048 1686 2085 C 1704 2120 1695 2154 1669 2147 C 1659 2144 1646 2148 1639 2156 C 1626 2172 1580 2175 1580 2160 C 1580 2155 1576 2150 1570 2150 C 1565 2150 1560 2158 1560 2167 C 1560 2176 1553 2192 1543 2202 C 1525 2222 1506 2252 1490 2289 C 1484 2302 1471 2321 1461 2330 C 1436 2351 1432 2490 1455 2523 C 1474 2550 1474 2560 1455 2560 C 1436 2560 1436 2576 1455 2584 C 1467 2588 1469 2599 1464 2632 C 1460 2656 1454 2680 1450 2685 C 1447 2691 1442 2713 1441 2734 C 1439 2785 1434 2791 1404 2784 C 1387 2780 1380 2782 1380 2792 C 1380 2800 1383 2810 1388 2814 C 1392 2818 1395 2825 1396 2828 C 1399 2864 1414 2928 1422 2937 C 1428 2944 1429 2965 1426 2984 C 1419 3020 1433 3042 1444 3014 C 1450 2999 1452 2999 1474 3014 C 1508 3036 1552 3035 1650 3009 C 1726 2990 1743 2989 1810 2999 C 1851 3005 1897 3010 1913 3010 C 1940 3010 1949 2993 1930 2974 C 1925 2969 1918 2945 1915 2921 C 1912 2896 1898 2863 1882 2841 C 1821 2762 1817 2750 1818 2670 C 1819 2600 1818 2592 1797 2582 C 1758 2563 1710 2557 1709 2572 C 1708 2579 1705 2574 1701 2560 C 1697 2544 1686 2535 1674 2534 C 1646 2533 1589 2489 1597 2476 C 1601 2470 1603 2451 1601 2433 C 1599 2409 1603 2400 1614 2400 C 1625 2400 1628 2390 1627 2358 C 1625 2321 1628 2315 1655 2301 C 1672 2292 1687 2282 1688 2278 C 1690 2273 1697 2270 1704 2270 C 1711 2270 1720 2251 1726 2229 C 1734 2190 1739 2186 1785 2171 C 1839 2154 1838 2155 1891 2110 C 1911 2094 1934 2080 1941 2080 C 1948 2080 1963 2071 1974 2061 C 1993 2043 2002 2042 2075 2052 C 2119 2058 2170 2069 2188 2077 C 2246 2102 2228 2116 2113 2134 C 2053 2143 1986 2156 1962 2162 C 1923 2172 1921 2174 1935 2190 C 1955 2212 1954 2215 1923 2244 C 1908 2258 1898 2271 1900 2274 C 1903 2276 1929 2274 1959 2268 C 1989 2263 2024 2260 2037 2263 C 2050 2265 2060 2263 2060 2258 C 2060 2254 2115 2251 2183 2252 C 2314 2254 2344 2248 2313 2224 C 2296 2212 2296 2211 2313 2210 C 2322 2210 2330 2215 2330 2220 C 2330 2226 2336 2230 2344 2230 C 2352 2230 2361 2234 2364 2239 C 2368 2244 2361 2246 2350 2243 C 2339 2240 2330 2242 2330 2248 C 2330 2262 2443 2257 2448 2242 C 2454 2224 2490 2228 2496 2248 C 2499 2257 2508 2278 2516 2293 C 2534 2329 2534 2361 2515 2386 C 2507 2396 2500 2416 2500 2429 C 2500 2448 2496 2451 2476 2446 C 2453 2440 2407 2459 2325 2509 C 2309 2519 2291 2525 2286 2522 C 2281 2519 2279 2527 2282 2538 C 2287 2554 2284 2560 2272 2561 C 2262 2561 2269 2568 2288 2578 C 2326 2597 2325 2607 2280 2638 C 2239 2665 2199 2666 2175 2640 C 2151 2614 2112 2619 2072 2655 C 2040 2683 2030 2710 2051 2710 C 2056 2710 2058 2715 2054 2721 C 2049 2729 2046 2729 2040 2721 C 2030 2705 2007 2716 1989 2746 C 1972 2774 1978 2839 2002 2887 C 2008 2900 2010 2913 2007 2916 C 2003 2920 2009 2935 2020 2950 C 2041 2980 2046 3015 2031 3025 C 2026 3028 2039 3060 2059 3095 C 2105 3173 2116 3226 2095 3266 C 2087 3282 2080 3301 2080 3308 C 2080 3314 2076 3320 2070 3320 C 2065 3320 2060 3330 2060 3343 C 2059 3368 2037 3402 2024 3398 C 2019 3397 2000 3404 1982 3413 C 1948 3432 1787 3455 1762 3445 C 1754 3442 1730 3445 1708 3450 C 1676 3459 1671 3464 1680 3475 C 1687 3483 1689 3494 1686 3499 C 1677 3513 1727 3558 1773 3578 C 1808 3594 1822 3610 1800 3610 C 1788 3610 1799 3623 1876 3705 C 1907 3738 1938 3777 1946 3792 C 1954 3807 1970 3824 1981 3831 C 1998 3840 2001 3839 1994 3828 C 1990 3821 1995 3823 2006 3832 C 2053 3873 2090 3880 2220 3876 C 2289 3873 2361 3869 2380 3867 z M 1816 3310 C 1830 3310 1840 3304 1840 3296 C 1840 3288 1846 3280 1853 3277 C 1862 3274 1862 3270 1851 3257 C 1837 3239 1806 3232 1722 3226 C 1680 3224 1670 3226 1674 3236 C 1677 3244 1673 3250 1665 3250 C 1637 3250 1650 3265 1703 3292 C 1765 3324 1784 3330 1788 3319 C 1790 3314 1803 3310 1816 3310 z M 3320 3290 C 3320 3285 3313 3280 3305 3280 C 3297 3280 3290 3275 3290 3269 C 3290 3264 3285 3262 3279 3265 C 3273 3270 3275 3277 3287 3286 C 3309 3302 3320 3304 3320 3290 z M 1818 3203 C 1808 3201 1792 3201 1783 3203 C 1773 3206 1781 3208 1800 3208 C 1819 3208 1827 3206 1818 3203 z M 1967 2703 C 1964 2701 1896 2697 1877 2699 C 1863 2700 1860 2705 1865 2720 C 1869 2731 1867 2740 1861 2740 C 1838 2740 1869 2786 1906 2807 L 1945 2829 L 1957 2767 C 1963 2733 1967 2704 1967 2703 z M 2226 2601 C 2223 2597 2209 2594 2194 2596 C 2153 2600 2153 2610 2194 2610 C 2214 2610 2229 2606 2226 2601 z M 2092 2477 C 2157 2460 2162 2450 2106 2450 C 2057 2450 2020 2463 2020 2480 C 2020 2493 2034 2492 2092 2477 z M 2205 2470 C 2208 2465 2204 2460 2196 2460 C 2187 2460 2180 2465 2180 2470 C 2180 2476 2184 2480 2189 2480 C 2195 2480 2202 2476 2205 2470 z M 2302 2460 C 2348 2440 2433 2370 2413 2370 C 2407 2370 2399 2374 2396 2379 C 2387 2392 2304 2431 2265 2440 C 2241 2445 2227 2444 2220 2434 C 2208 2420 2176 2426 2185 2441 C 2188 2445 2197 2447 2204 2444 C 2212 2441 2220 2448 2223 2459 C 2229 2485 2247 2485 2302 2460 z M 1406 2434 C 1407 2405 1397 2394 1389 2416 C 1377 2445 1379 2462 1393 2457 C 1399 2455 1405 2445 1406 2434 z M 1953 2399 C 1969 2415 2012 2413 2036 2395 C 2053 2384 2063 2383 2088 2392 C 2112 2401 2125 2401 2147 2391 C 2162 2384 2198 2377 2227 2375 C 2294 2371 2320 2362 2320 2344 C 2320 2336 2329 2331 2343 2333 C 2359 2334 2365 2330 2365 2315 C 2365 2296 2358 2293 2273 2276 C 2260 2273 2250 2276 2250 2282 C 2250 2288 2242 2286 2232 2277 C 2210 2257 2189 2255 2171 2273 C 2160 2283 2157 2283 2153 2273 C 2147 2256 2088 2257 2064 2274 C 2052 2284 2041 2285 2033 2279 C 2019 2267 1950 2293 1950 2310 C 1950 2317 1942 2319 1930 2315 C 1918 2311 1902 2314 1893 2322 C 1884 2329 1863 2335 1846 2335 C 1820 2335 1815 2339 1812 2361 C 1808 2393 1834 2418 1854 2401 C 1864 2392 1870 2393 1880 2405 C 1892 2419 1895 2419 1917 2404 C 1935 2393 1945 2391 1953 2399 z M 2540 1680 C 2540 1675 2536 1670 2530 1670 C 2525 1670 2520 1675 2520 1680 C 2520 1686 2525 1690 2530 1690 C 2536 1690 2540 1686 2540 1680 z M 1914 1114 C 1917 1105 1920 1089 1920 1077 C 1919 1055 1919 1055 1900 1079 C 1889 1091 1882 1106 1885 1110 C 1888 1115 1884 1121 1878 1123 C 1871 1126 1875 1129 1886 1129 C 1898 1130 1911 1123 1914 1114 z M 1930 890 C 1935 890 1937 884 1934 876 C 1930 865 1934 863 1952 866 C 1974 871 1974 871 1956 856 C 1934 838 1915 835 1925 849 C 1928 854 1926 861 1920 865 C 1915 868 1911 883 1911 898 C 1912 915 1914 919 1917 908 C 1919 898 1925 890 1930 890 z M 2525 910 C 2528 905 2526 900 2521 900 C 2515 900 2510 905 2510 910 C 2510 916 2512 920 2514 920 C 2517 920 2522 916 2525 910 z M 2555 880 C 2558 875 2557 870 2551 870 C 2546 870 2538 875 2535 880 C 2532 886 2533 890 2539 890 C 2544 890 2552 886 2555 880 z M 2024 855 C 2027 846 2024 840 2015 840 C 2007 840 2000 847 2000 855 C 2000 863 2004 870 2009 870 C 2014 870 2020 863 2024 855 z M 2060 840 C 2060 835 2055 830 2049 830 C 2044 830 2042 835 2045 840 C 2048 846 2053 850 2056 850 C 2058 850 2060 846 2060 840 z M 2451 834 C 2463 820 2462 818 2446 821 C 2435 823 2425 831 2422 838 C 2417 855 2435 853 2451 834 z M 2105 830 C 2108 825 2104 820 2096 820 C 2087 820 2080 825 2080 830 C 2080 836 2084 840 2089 840 C 2095 840 2102 836 2105 830 z M 2190 820 C 2190 815 2186 810 2180 810 C 2175 810 2170 815 2170 820 C 2170 826 2175 830 2180 830 C 2186 830 2190 826 2190 820 z M 2256 796 C 2259 788 2257 773 2251 762 C 2243 747 2245 738 2260 722 C 2281 700 2286 680 2271 680 C 2266 680 2253 698 2241 720 C 2230 742 2225 760 2230 760 C 2236 760 2240 765 2240 770 C 2240 776 2235 779 2228 778 C 2222 776 2214 783 2212 793 C 2208 814 2248 817 2256 796 z M 2160 770 C 2160 765 2156 760 2151 760 C 2145 760 2138 765 2135 770 C 2132 776 2136 780 2144 780 C 2153 780 2160 776 2160 770 z M 2320 770 C 2320 765 2316 760 2311 760 C 2305 760 2298 765 2295 770 C 2292 776 2296 780 2304 780 C 2313 780 2320 776 2320 770 z M 2151 740 C 2177 725 2175 698 2145 670 C 2131 657 2120 651 2120 657 C 2120 663 2127 670 2135 674 C 2143 677 2150 689 2150 700 C 2150 711 2143 723 2135 726 C 2127 730 2120 736 2120 741 C 2120 753 2127 752 2151 740 z M 2210 730 C 2210 725 2206 720 2201 720 C 2195 720 2188 725 2185 730 C 2182 736 2186 740 2194 740 C 2203 740 2210 736 2210 730 z M 2217 690 C 2216 679 2212 670 2208 670 C 2197 670 2188 689 2195 700 C 2206 717 2219 711 2217 690 z M 2277 633 C 2267 623 2244 643 2243 663 L 2241 685 L 2261 661 C 2272 648 2279 635 2277 633 z M 2230 639 C 2230 634 2226 630 2220 630 C 2215 630 2210 637 2210 646 C 2210 654 2215 658 2220 655 C 2226 652 2230 645 2230 639 z M 2290 589 C 2290 578 2259 578 2242 588 C 2235 593 2232 604 2236 613 C 2241 628 2244 628 2266 613 C 2279 605 2290 594 2290 589 z M 2250 483 C 2250 476 2246 470 2240 470 C 2235 470 2230 482 2230 498 C 2230 519 2232 522 2240 510 C 2245 502 2250 489 2250 483 z M 2216 450 C 2217 422 2216 416 2213 435 C 2210 452 2201 473 2192 484 C 2176 501 2176 502 2195 499 C 2211 496 2215 486 2216 450 z M 2287 423 C 2284 420 2276 421 2270 425 C 2261 431 2261 435 2271 441 C 2285 449 2298 434 2287 423 z M 2260 396 C 2260 393 2256 388 2250 385 C 2245 382 2240 384 2240 389 C 2240 395 2245 400 2250 400 C 2256 400 2260 398 2260 396 z M 2261 338 C 2272 317 2272 316 2257 329 C 2247 336 2240 346 2240 351 C 2240 366 2249 361 2261 338 z M 2242 237 C 2228 223 2216 220 2203 225 C 2188 232 2189 234 2215 240 C 2232 244 2241 248 2237 249 C 2232 249 2232 255 2235 260 C 2239 266 2246 267 2252 264 C 2258 260 2254 250 2242 237 z M 2120 220 C 2120 215 2116 210 2110 210 C 2105 210 2100 215 2100 220 C 2100 226 2105 230 2110 230 C 2116 230 2120 226 2120 220 z M 2280 210 C 2280 205 2276 200 2270 200 C 2265 200 2260 205 2260 210 C 2260 216 2265 220 2270 220 C 2276 220 2280 216 2280 210 z M 2245 180 C 2249 163 2257 150 2263 150 C 2271 150 2270 146 2262 138 C 2247 123 2246 93 2261 88 C 2273 84 2262 50 2248 50 C 2242 50 2241 57 2244 66 C 2248 76 2245 80 2238 78 C 2231 75 2224 64 2222 52 C 2219 31 2190 20 2190 40 C 2190 46 2195 50 2200 50 C 2206 50 2210 55 2210 62 C 2210 68 2207 70 2203 67 C 2193 57 2160 90 2160 111 C 2160 123 2154 127 2141 123 C 2131 120 2119 124 2115 131 C 2109 140 2113 142 2128 138 C 2149 132 2179 155 2166 167 C 2155 178 2192 210 2216 210 C 2233 210 2240 203 2245 180 z M 2150 180 C 2150 175 2145 170 2139 170 C 2134 170 2132 175 2135 180 C 2138 186 2143 190 2146 190 C 2148 190 2150 186 2150 180 z M 2120 70 C 2126 78 2130 80 2130 75 C 2130 69 2125 59 2118 52 C 2104 38 2070 54 2070 77 C 2070 91 2073 91 2091 74 C 2108 58 2113 58 2120 70 z M 2178 47 C 2182 28 2172 26 2151 39 C 2135 49 2146 73 2163 67 C 2170 65 2176 56 2178 47 z" stroke-linecap="round" />
</g>
		<g transform="matrix(0.13 0 0 -0.13 40.11 -104.85)"  >
<path style="stroke: none; stroke-width: 1; stroke-dasharray: none; stroke-linecap: butt; stroke-dashoffset: 0; stroke-linejoin: miter; stroke-miterlimit: 4; fill: rgb(255,255,255); fill-rule: nonzero; opacity: 1;" vector-effect="non-scaling-stroke"  transform=" translate(-2584.9, -3134)" d="M 2364 3365 C 2360 3357 2351 3350 2343 3350 C 2330 3350 2329 3341 2335 3303 C 2339 3276 2346 3252 2352 3249 C 2364 3241 2364 3229 2352 3221 C 2334 3210 2300 3135 2300 3107 C 2300 3091 2305 3069 2311 3057 C 2325 3029 2430 2927 2437 2934 C 2440 2937 2455 2931 2469 2921 C 2504 2896 2585 2884 2605 2900 C 2614 2908 2633 2909 2661 2905 C 2688 2900 2700 2901 2696 2908 C 2693 2913 2669 2921 2644 2925 C 2618 2928 2591 2934 2584 2937 C 2566 2944 2566 2964 2585 2980 C 2596 2989 2600 2990 2600 2980 C 2600 2972 2610 2971 2630 2975 C 2652 2980 2672 2976 2700 2961 C 2740 2940 2820 2922 2820 2933 C 2820 2937 2808 2952 2793 2968 C 2777 2984 2752 3014 2736 3035 C 2701 3081 2632 3125 2563 3147 C 2509 3164 2497 3183 2522 3208 C 2539 3225 2572 3223 2621 3200 C 2645 3189 2673 3180 2683 3180 C 2692 3180 2709 3171 2720 3160 C 2732 3148 2745 3142 2751 3145 C 2756 3149 2776 3138 2796 3121 C 2835 3087 2855 3082 2864 3106 C 2878 3143 2868 3171 2819 3230 C 2778 3278 2762 3291 2741 3290 C 2727 3289 2713 3289 2710 3290 C 2707 3291 2697 3293 2687 3295 C 2677 3297 2657 3307 2642 3316 C 2603 3343 2550 3360 2508 3360 C 2488 3360 2468 3365 2465 3370 C 2461 3377 2453 3377 2440 3370 C 2428 3363 2413 3363 2395 3370 C 2375 3378 2368 3377 2364 3365 z M 2633 3089 C 2702 3044 2701 3034 2631 3069 C 2598 3086 2564 3100 2555 3100 C 2547 3100 2540 3105 2540 3110 C 2540 3130 2588 3119 2633 3089 z M 2340 3065 C 2340 3057 2338 3050 2336 3050 C 2334 3050 2330 3057 2326 3065 C 2323 3073 2325 3080 2330 3080 C 2336 3080 2340 3073 2340 3065 z M 2470 3050 C 2470 3045 2468 3040 2466 3040 C 2463 3040 2458 3045 2455 3050 C 2452 3056 2454 3060 2459 3060 C 2465 3060 2470 3056 2470 3050 z M 2640 3020 C 2640 3015 2636 3010 2630 3010 C 2625 3010 2620 3015 2620 3020 C 2620 3026 2625 3030 2630 3030 C 2636 3030 2640 3026 2640 3020 z" stroke-linecap="round" />
</g>
		<g transform="matrix(0.13 0 0 -0.13 -10.2 294.23)"  >
<path style="stroke: none; stroke-width: 1; stroke-dasharray: none; stroke-linecap: butt; stroke-dashoffset: 0; stroke-linejoin: miter; stroke-miterlimit: 4; fill: rgb(255,255,255); fill-rule: nonzero; opacity: 1;" vector-effect="non-scaling-stroke"  transform=" translate(-2207.56, -140.87)" d="M 2189 168 C 2188 161 2187 148 2186 140 C 2186 132 2191 119 2198 111 C 2210 99 2213 99 2221 111 C 2232 129 2232 137 2220 161 C 2208 183 2191 186 2189 168 z M 2220 140 C 2220 135 2215 130 2209 130 C 2204 130 2202 135 2205 140 C 2208 146 2213 150 2216 150 C 2218 150 2220 146 2220 140 z" stroke-linecap="round" />
</g>
		<g transform="matrix(0.13 0 0 -0.13 111.2 -49.67)"  >
<path style="stroke: none; stroke-width: 1; stroke-dasharray: none; stroke-linecap: butt; stroke-dashoffset: 0; stroke-linejoin: miter; stroke-miterlimit: 4; fill: rgb(255,255,255); fill-rule: nonzero; opacity: 1;" vector-effect="non-scaling-stroke"  transform=" translate(-3118.13, -2720.17)" d="M 3103 2778 C 3084 2757 3083 2753 3095 2730 C 3103 2716 3110 2710 3110 2715 C 3110 2721 3119 2707 3129 2685 L 3148 2645 L 3149 2706 C 3150 2740 3145 2774 3137 2784 C 3125 2800 3123 2800 3103 2778 z" stroke-linecap="round" />
</g>
		<g transform="matrix(0.13 0 0 -0.13 -145.15 -37.35)"  >
<path style="stroke: none; stroke-width: 1; stroke-dasharray: none; stroke-linecap: butt; stroke-dashoffset: 0; stroke-linejoin: miter; stroke-miterlimit: 4; fill: rgb(255,255,255); fill-rule: nonzero; opacity: 1;" vector-effect="non-scaling-stroke"  transform=" translate(-1195.44, -2627.77)" d="M 1151 2684 C 1150 2644 1155 2627 1176 2599 C 1190 2580 1206 2555 1211 2543 C 1220 2519 1240 2512 1240 2533 C 1240 2560 1227 2590 1215 2590 C 1192 2590 1168 2629 1160 2682 L 1152 2735 L 1151 2684 z" stroke-linecap="round" />
</g>
		<g transform="matrix(0.13 0 0 -0.13 1.4 115.02)"  >
<path style="stroke: none; stroke-width: 1; stroke-dasharray: none; stroke-linecap: butt; stroke-dashoffset: 0; stroke-linejoin: miter; stroke-miterlimit: 4; fill: rgb(255,255,255); fill-rule: nonzero; opacity: 1;" vector-effect="non-scaling-stroke"  transform=" translate(-2294.63, -1484.93)" d="M 2326 1493 C 2322 1489 2303 1487 2284 1489 C 2266 1490 2250 1487 2250 1482 C 2250 1470 2329 1470 2336 1482 C 2344 1494 2336 1502 2326 1493 z" stroke-linecap="round" />
</g>
		<g transform="matrix(0.13 0 0 -0.13 -118.61 183.38)"  >
<path style="stroke: none; stroke-width: 1; stroke-dasharray: none; stroke-linecap: butt; stroke-dashoffset: 0; stroke-linejoin: miter; stroke-miterlimit: 4; fill: rgb(255,255,255); fill-rule: nonzero; opacity: 1;" vector-effect="non-scaling-stroke"  transform=" translate(-1394.55, -972.24)" d="M 1370 1000 C 1370 995 1362 993 1353 996 C 1339 1000 1340 999 1355 989 C 1366 982 1383 967 1392 956 C 1402 944 1409 939 1410 944 C 1410 949 1416 947 1424 941 C 1434 933 1440 932 1445 940 C 1448 945 1444 950 1436 950 C 1428 950 1418 959 1415 970 C 1412 981 1401 990 1392 990 C 1377 990 1377 992 1390 1000 C 1403 1008 1402 1010 1388 1010 C 1378 1010 1370 1006 1370 1000 z" stroke-linecap="round" />
</g>
		<g transform="matrix(0.13 0 0 -0.13 43.69 202.35)"  >
<path style="stroke: none; stroke-width: 1; stroke-dasharray: none; stroke-linecap: butt; stroke-dashoffset: 0; stroke-linejoin: miter; stroke-miterlimit: 4; fill: rgb(255,255,255); fill-rule: nonzero; opacity: 1;" vector-effect="non-scaling-stroke"  transform=" translate(-2611.8, -830)" d="M 2605 830 C 2602 825 2604 820 2609 820 C 2615 820 2620 825 2620 830 C 2620 836 2618 840 2616 840 C 2613 840 2608 836 2605 830 z" stroke-linecap="round" />
</g>
		<g transform="matrix(0.13 0 0 -0.13 47.69 202.35)"  >
<path style="stroke: none; stroke-width: 1; stroke-dasharray: none; stroke-linecap: butt; stroke-dashoffset: 0; stroke-linejoin: miter; stroke-miterlimit: 4; fill: rgb(255,255,255); fill-rule: nonzero; opacity: 1;" vector-effect="non-scaling-stroke"  transform=" translate(-2641.8, -830)" d="M 2635 830 C 2632 825 2634 820 2639 820 C 2645 820 2650 825 2650 830 C 2650 836 2648 840 2646 840 C 2643 840 2638 836 2635 830 z" stroke-linecap="round" />
</g>
</g>
</g>
</svg>