<?xml version="1.0" standalone="no"?>
<!DOCTYPE svg PUBLIC "-//W3C//DTD SVG 20010904//EN"
 "http://www.w3.org/TR/2001/REC-SVG-20010904/DTD/svg10.dtd">
<svg version="1.0" xmlns="http://www.w3.org/2000/svg"
 width="1024.000000pt" height="1024.000000pt" viewBox="0 0 1024.000000 1024.000000"
 preserveAspectRatio="xMidYMid meet">

<g transform="translate(0.000000,1024.000000) scale(0.100000,-0.100000)"
fill="#000000" stroke="none">
<path d="M0 5120 l0 -5120 5120 0 5120 0 0 5120 0 5120 -5120 0 -5120 0 0
-5120z m3793 2132 c26 -28 38 -71 27 -92 -12 -23 -319 -261 -400 -311 -13 -8
-13 -10 2 -19 36 -22 313 -232 320 -243 24 -37 -15 -117 -56 -117 -8 0 -54 29
-103 65 -48 35 -145 105 -215 155 -95 68 -129 98 -137 122 -6 17 -11 34 -11
39 0 21 71 84 225 200 93 70 195 148 225 173 59 49 97 57 123 28z m437 -14
c11 -12 20 -27 20 -34 0 -15 -263 -734 -290 -791 -23 -50 -57 -64 -94 -39 -39
25 -39 47 -2 147 19 52 73 198 119 324 47 127 98 264 112 305 15 41 36 83 47
93 28 23 63 22 88 -5z m330 -223 l200 -136 0 -38 c0 -28 -7 -44 -27 -63 -46
-42 -406 -300 -435 -312 -39 -15 -78 22 -78 75 0 38 1 39 168 154 229 158 211
144 187 157 -11 6 -79 51 -152 100 -143 96 -157 113 -129 166 16 32 33 43 54
36 7 -2 102 -65 212 -139z m3241 -20 c62 -44 99 -119 99 -202 0 -75 -21 -125
-75 -171 -43 -38 -71 -47 -151 -47 -87 0 -149 34 -189 103 l-30 51 -185 1
c-102 0 -329 3 -505 6 -176 3 -352 2 -392 -3 l-71 -8 -221 -217 -221 -218 -83
0 c-46 0 -87 3 -90 6 -11 11 25 50 301 328 l267 268 607 -5 606 -5 6 22 c9 31
50 74 99 102 36 21 52 24 114 22 61 -3 78 -8 114 -33z m-558 -481 c47 -23 80
-75 85 -138 5 -63 -13 -103 -61 -140 -69 -53 -161 -42 -225 25 l-36 39 -385 0
-385 0 74 76 75 75 312 -3 312 -3 28 26 c50 45 77 58 125 58 26 1 62 -6 81
-15z m637 -288 c0 -7 14 -58 30 -112 38 -123 73 -282 97 -439 25 -172 25 -670
0 -835 -54 -347 -139 -613 -298 -933 -116 -233 -333 -562 -363 -551 -9 3 -19
-4 -26 -18 -11 -22 -10 -22 4 -4 9 11 19 17 22 13 11 -11 -60 -92 -221 -253
-140 -141 -356 -325 -380 -323 -5 0 -2 6 8 12 33 21 140 108 211 171 49 43 64
62 53 64 -9 2 -17 7 -17 12 0 5 7 7 15 4 9 -4 15 0 15 10 0 9 5 16 10 16 14 0
13 -13 -2 -28 -7 -7 -10 -12 -7 -12 2 0 43 39 89 86 47 48 77 84 68 81 -10 -4
-18 -2 -18 4 0 6 -4 8 -9 4 -5 -3 -16 2 -24 10 -9 8 -26 15 -39 15 -41 0 -53
16 -17 24 18 3 30 9 26 12 -3 3 -20 3 -37 -1 -29 -6 -30 -9 -24 -41 5 -27 3
-34 -10 -34 -9 0 -19 0 -23 -1 -4 0 -9 5 -11 11 -3 8 3 10 19 5 21 -7 22 -6
11 7 -7 9 -10 22 -7 30 4 9 -1 18 -11 22 -20 8 -77 -41 -67 -57 3 -6 2 -7 -4
-4 -5 3 -25 -10 -44 -30 -25 -27 -29 -34 -14 -29 17 5 16 3 -4 -12 -13 -11
-21 -23 -18 -28 3 -6 -3 -10 -13 -10 -18 0 -18 2 2 23 39 41 8 24 -61 -34
-106 -91 -131 -109 -131 -100 0 3 33 31 73 63 134 108 386 368 487 504 35 47
75 101 90 120 74 99 217 367 293 550 86 209 159 482 189 710 19 146 16 557 -6
715 -22 163 -57 324 -101 463 -19 59 -35 115 -35 125 0 15 12 17 115 17 91 0
115 -3 115 -14z m-4118 -448 c2 -189 2 -371 1 -405 l-1 -63 404 0 404 0 0 405
0 405 1165 0 1165 0 0 -242 0 -243 -398 0 -397 0 4 -822 3 -823 -241 0 -241 0
-2 823 -3 822 -165 3 c-91 2 -220 0 -287 -3 l-123 -7 -2 -820 -3 -820 -50 0
c-27 0 -134 0 -237 1 l-188 1 0 420 0 420 -405 0 -405 0 0 -420 0 -420 -41 0
c-22 0 -128 -1 -235 -2 l-194 -3 0 1068 0 1067 235 0 235 0 2 -342z m3248
-2548 c0 -5 -4 -10 -9 -10 -5 0 -13 -10 -16 -21 -6 -17 -9 -18 -16 -8 -5 8 -2
20 9 31 19 19 32 23 32 8z m127 -38 l32 -17 -49 -54 c-44 -49 -78 -62 -63 -26
3 8 0 15 -6 15 -6 0 -8 7 -5 15 4 8 11 15 16 15 6 0 8 -6 5 -13 -10 -27 8 -39
28 -17 10 11 13 20 7 20 -7 0 -12 7 -12 15 0 9 -9 15 -22 15 -17 0 -19 3 -10
12 9 9 17 7 35 -10 30 -28 35 -28 35 3 0 19 -6 25 -22 25 -11 0 -28 5 -36 10
-27 18 32 11 67 -8z m-206 -26 c-9 -11 -9 -15 1 -19 9 -4 9 -6 1 -6 -6 -1 -15
4 -18 9 -8 12 2 30 17 30 7 0 7 -5 -1 -14z m55 -63 c-10 -10 -19 5 -10 18 6
11 8 11 12 0 2 -7 1 -15 -2 -18z m-2 -71 c2 -4 -4 -8 -14 -8 -10 0 -16 4 -14
8 3 4 9 8 14 8 5 0 11 -4 14 -8z m-334 -66 c0 -2 -8 -10 -17 -17 -16 -13 -17
-12 -4 4 13 16 21 21 21 13z m-40 -30 c0 -2 -8 -10 -17 -17 -16 -13 -17 -12
-4 4 13 16 21 21 21 13z m-75 -56 c-3 -5 -12 -10 -18 -10 -7 0 -6 4 3 10 19
12 23 12 15 0z m165 -145 c0 -2 -10 -9 -22 -15 -22 -11 -22 -10 -4 4 21 17 26
19 26 11z"/>
<path d="M7634 6889 c-27 -14 -54 -60 -54 -93 0 -14 13 -40 29 -58 24 -27 36
-33 71 -33 34 0 47 6 66 28 70 81 -17 202 -112 156z"/>
<path d="M7120 6411 c-28 -52 0 -111 53 -111 57 0 89 77 49 113 -26 24 -88 22
-102 -2z"/>
<path d="M7256 3532 c-3 -5 1 -9 9 -9 8 0 12 4 9 9 -3 4 -7 8 -9 8 -2 0 -6 -4
-9 -8z"/>
<path d="M7140 3409 c0 -5 5 -7 10 -4 6 3 10 8 10 11 0 2 -4 4 -10 4 -5 0 -10
-5 -10 -11z"/>
<path d="M7066 3338 c-31 -34 -56 -66 -56 -72 0 -6 5 -4 10 4 5 8 21 16 36 17
29 2 27 -7 -2 -11 -10 -2 -20 -8 -22 -15 -3 -10 3 -9 24 1 16 8 36 13 46 11
22 -5 32 13 16 30 -10 11 -16 11 -38 0 -42 -21 -37 5 11 53 24 24 40 44 37 44
-4 0 -31 -28 -62 -62z m48 -46 c3 -5 -1 -9 -9 -9 -8 0 -15 4 -15 9 0 4 4 8 9
8 6 0 12 -4 15 -8z"/>
<path d="M7212 3368 c2 -6 10 -13 16 -14 7 -1 8 0 2 3 -5 2 -8 9 -4 14 3 5 0
9 -6 9 -7 0 -10 -5 -8 -12z"/>
<path d="M7255 3270 c3 -5 8 -10 11 -10 2 0 4 5 4 10 0 6 -5 10 -11 10 -5 0
-7 -4 -4 -10z"/>
<path d="M7110 3243 c-13 -15 -12 -16 4 -10 10 4 22 7 27 7 6 0 7 5 4 10 -9
14 -18 12 -35 -7z"/>
<path d="M7230 3235 c-7 -9 -19 -14 -27 -11 -15 6 -17 -3 -5 -22 6 -9 14 -4
30 18 23 31 24 42 2 15z"/>
<path d="M7147 3219 c7 -7 15 -10 18 -7 3 3 -2 9 -12 12 -14 6 -15 5 -6 -5z"/>
<path d="M6253 5653 c9 -2 23 -2 30 0 6 3 -1 5 -18 5 -16 0 -22 -2 -12 -5z"/>
<path d="M6598 5653 c23 -2 61 -2 85 0 23 2 4 4 -43 4 -47 0 -66 -2 -42 -4z"/>
<path d="M6823 5653 c15 -2 37 -2 50 0 12 2 0 4 -28 4 -27 0 -38 -2 -22 -4z"/>
<path d="M5642 5495 c0 -16 2 -22 5 -12 2 9 2 23 0 30 -3 6 -5 -1 -5 -18z"/>
<path d="M5643 5120 c0 -47 2 -66 4 -42 2 23 2 61 0 85 -2 23 -4 4 -4 -43z"/>
<path d="M5645 4505 c0 -280 1 -397 2 -258 2 138 2 368 0 510 -1 142 -2 29 -2
-252z"/>
<path d="M6018 4643 c7 -3 16 -2 19 1 4 3 -2 6 -13 5 -11 0 -14 -3 -6 -6z"/>
<path d="M5751 4374 c0 -11 3 -14 6 -6 3 7 2 16 -1 19 -3 4 -6 -2 -5 -13z"/>
<path d="M5836 4323 c-6 -14 -5 -15 5 -6 7 7 10 15 7 18 -3 3 -9 -2 -12 -12z"/>
<path d="M5836 4285 c-9 -26 -7 -32 5 -12 6 10 9 21 6 23 -2 3 -7 -2 -11 -11z"/>
<path d="M6082 4270 c0 -19 2 -27 5 -17 2 9 2 25 0 35 -3 9 -5 1 -5 -18z"/>
<path d="M5793 4233 c9 -2 25 -2 35 0 9 3 1 5 -18 5 -19 0 -27 -2 -17 -5z"/>
<path d="M6082 4190 c0 -19 2 -27 5 -17 2 9 2 25 0 35 -3 9 -5 1 -5 -18z"/>
<path d="M5790 4206 c0 -2 11 -6 25 -8 14 -3 25 -1 25 3 0 5 -11 9 -25 9 -14
0 -25 -2 -25 -4z"/>
<path d="M5795 4170 c3 -5 8 -10 11 -10 2 0 4 5 4 10 0 6 -5 10 -11 10 -5 0
-7 -4 -4 -10z"/>
<path d="M5720 4150 c0 -5 5 -10 10 -10 6 0 10 5 10 10 0 6 -4 10 -10 10 -5 0
-10 -4 -10 -10z"/>
<path d="M5910 4121 c0 -5 7 -11 15 -15 8 -3 15 -1 15 3 0 5 -7 11 -15 15 -8
3 -15 1 -15 -3z"/>
<path d="M5970 4119 c0 -5 5 -7 10 -4 6 3 10 8 10 11 0 2 -4 4 -10 4 -5 0 -10
-5 -10 -11z"/>
<path d="M5810 4095 c0 -8 4 -15 10 -15 5 0 7 7 4 15 -4 8 -8 15 -10 15 -2 0
-4 -7 -4 -15z"/>
<path d="M6045 4101 c-3 -5 -1 -12 5 -16 5 -3 10 1 10 9 0 18 -6 21 -15 7z"/>
<path d="M6076 4083 c-6 -14 -5 -15 5 -6 7 7 10 15 7 18 -3 3 -9 -2 -12 -12z"/>
<path d="M5920 4080 l-25 -8 28 -1 c15 -1 27 4 27 9 0 6 -1 10 -2 9 -2 -1 -14
-5 -28 -9z"/>
<path d="M5970 4080 c-11 -7 -3 -10 28 -10 44 0 57 -14 22 -23 -11 -3 -20 -12
-20 -21 0 -15 -17 -17 -150 -14 -83 2 -150 0 -150 -4 0 -5 88 -8 195 -8 l195
0 0 31 0 30 -29 -20 c-32 -23 -51 -27 -51 -11 0 6 6 10 14 10 7 0 19 6 25 14
12 14 10 16 -49 32 -8 2 -22 -1 -30 -6z m110 -60 c0 -5 -9 -10 -21 -10 -11 0
-17 5 -14 10 3 6 13 10 21 10 8 0 14 -4 14 -10z"/>
<path d="M5752 4060 c-7 -11 -10 -20 -7 -20 3 0 14 9 25 20 12 12 15 20 7 20
-7 0 -18 -9 -25 -20z"/>
<path d="M5028 4041 c4 -28 2 -30 -34 -34 l-39 -4 43 -1 c42 -2 42 -2 42 33 0
19 -4 35 -8 35 -5 0 -7 -13 -4 -29z"/>
<path d="M5853 4053 c9 -2 25 -2 35 0 9 3 1 5 -18 5 -19 0 -27 -2 -17 -5z"/>
<path d="M5930 4046 c6 -8 18 -12 26 -9 8 3 14 0 14 -6 0 -6 4 -11 9 -11 6 0
9 9 8 20 -1 16 -8 20 -35 20 -29 0 -33 -2 -22 -14z"/>
<path d="M5905 4030 c-3 -5 -1 -10 4 -10 6 0 11 5 11 10 0 6 -2 10 -4 10 -3 0
-8 -4 -11 -10z"/>
<path d="M4648 4003 c6 -2 18 -2 25 0 6 3 1 5 -13 5 -14 0 -19 -2 -12 -5z"/>
<path d="M4733 4003 c9 -2 25 -2 35 0 9 3 1 5 -18 5 -19 0 -27 -2 -17 -5z"/>
<path d="M4798 4003 c6 -2 18 -2 25 0 6 3 1 5 -13 5 -14 0 -19 -2 -12 -5z"/>
<path d="M4873 4003 c15 -2 37 -2 50 0 12 2 0 4 -28 4 -27 0 -38 -2 -22 -4z"/>
</g>
</svg>
